<?xml version="1.0" encoding="UTF-8" standalone="no"?>
<!DOCTYPE svg PUBLIC "-//W3C//DTD SVG 1.1//EN" "http://www.w3.org/Graphics/SVG/1.1/DTD/svg11.dtd">
<svg version="1.1" xmlns="http://www.w3.org/2000/svg" xmlns:xlink="http://www.w3.org/1999/xlink" preserveAspectRatio="xMidYMid meet" viewBox="132.13139035127284 127.67588954857658 106.07415046892169 84" width="102.07" height="80"><defs><path d="M224.48 168.68C224.48 190.75 206.55 208.68 184.48 208.68C162.4 208.68 144.48 190.75 144.48 168.68C144.48 146.6 162.4 128.68 184.48 128.68C206.55 128.68 224.48 146.6 224.48 168.68Z" id="hjaek6pbd"></path><linearGradient id="gradientc18QL1i7Q9" gradientUnits="userSpaceOnUse" x1="184.48" y1="163.53" x2="184.48" y2="172.24"><stop style="stop-color: #eff8ff;stop-opacity: 1" offset="0%"></stop><stop style="stop-color: #6cb2eb;stop-opacity: 1" offset="100%"></stop></linearGradient><path d="M201.82 168.68C201.82 178.25 194.05 186.02 184.48 186.02C174.9 186.02 167.13 178.25 167.13 168.68C167.13 159.1 174.9 151.33 184.48 151.33C194.05 151.33 201.82 159.1 201.82 168.68Z" id="aeTHquJZa"></path><path d="M201.82 179.13C201.82 182.93 199.26 186.02 196.09 186.02C192.93 186.02 190.37 182.93 190.37 179.13C190.37 175.33 192.93 172.24 196.09 172.24C199.26 172.24 201.82 175.33 201.82 179.13Z" id="a1v7ix1kvd"></path><path d="M133.13 166.68L235.21 166.68L235.21 170.24L133.13 170.24L133.13 166.68Z" id="a3T2KiAwOk"></path></defs><g><g><use xlink:href="#hjaek6pbd" opacity="1" fill="url(#gradientc18QL1i7Q9)"></use><g><use xlink:href="#hjaek6pbd" opacity="1" fill-opacity="0" stroke="#2779bd" stroke-width="2" stroke-opacity="1"></use></g></g><g><use xlink:href="#aeTHquJZa" opacity="1" fill="#1c3d5a" fill-opacity="1"></use></g><g><use xlink:href="#a1v7ix1kvd" opacity="1" fill="#f2f2f2" fill-opacity="1"></use></g><g><use xlink:href="#a3T2KiAwOk" opacity="1" fill="#0d8326" fill-opacity="1"></use></g></g></svg>